<svg width="88" height="20" viewBox="0 0 88 20" fill="none" xmlns="http://www.w3.org/2000/svg">
<path fill-rule="evenodd" clip-rule="evenodd" d="M8.33337 15.5918C7.88282 15.4577 7.45508 15.2707 7.05737 15.0378L6.92282 15.1724C6.59738 15.4978 6.06974 15.4978 5.74431 15.1724L4.82769 14.2558C4.50225 13.9303 4.50225 13.4027 4.82769 13.0773L4.96224 12.9427C4.72943 12.545 4.54236 12.1173 4.40827 11.6667H4.16671C3.70647 11.6667 3.33337 11.2936 3.33337 10.8334V9.16671C3.33337 8.70647 3.70647 8.33337 4.16671 8.33337H4.40827C4.54236 7.88282 4.72943 7.45508 4.96224 7.05737L4.82769 6.92282C4.50225 6.59738 4.50225 6.06974 4.82769 5.74431L5.74431 4.82769C6.06974 4.50225 6.59738 4.50225 6.92282 4.82769L7.05737 4.96224C7.45508 4.72943 7.88282 4.54236 8.33337 4.40827V4.16671C8.33337 3.70647 8.70647 3.33337 9.16671 3.33337H10.8334C11.2936 3.33337 11.6667 3.70647 11.6667 4.16671V4.40827C12.1173 4.54236 12.545 4.72943 12.9427 4.96224L13.0773 4.82769C13.4027 4.50225 13.9303 4.50225 14.2558 4.82769L15.1724 5.74431C15.4978 6.06974 15.4978 6.59738 15.1724 6.92282L15.0378 7.05737C15.2707 7.45508 15.4577 7.88282 15.5918 8.33337H15.8334C16.2936 8.33337 16.6667 8.70647 16.6667 9.16671V10.8334C16.6667 11.2936 16.2936 11.6667 15.8334 11.6667H15.5918C15.4577 12.1173 15.2707 12.545 15.0378 12.9427L15.1724 13.0773C15.4978 13.4027 15.4978 13.9303 15.1724 14.2558L14.2558 15.1724C13.9303 15.4978 13.4027 15.4978 13.0773 15.1724L12.9427 15.0378C12.545 15.2707 12.1173 15.4577 11.6667 15.5918V15.8334C11.6667 16.2936 11.2936 16.6667 10.8334 16.6667H9.16671C8.70647 16.6667 8.33337 16.2936 8.33337 15.8334V15.5918V15.5918Z" stroke="#363837" stroke-linecap="round" stroke-linejoin="round"/>
<circle cx="9.99996" cy="9.99996" r="3.33333" stroke="#363837"/>
<path d="M30.12 15.144C29.2987 15.144 28.52 15.0373 27.784 14.824C27.0587 14.6 26.4667 14.3013 26.008 13.928C25.7627 13.7467 25.64 13.4907 25.64 13.16C25.64 12.936 25.704 12.744 25.832 12.584C25.9707 12.4133 26.1307 12.328 26.312 12.328C26.504 12.328 26.7227 12.4027 26.968 12.552C27.4267 12.8827 27.9067 13.1227 28.408 13.272C28.9093 13.4213 29.464 13.496 30.072 13.496C30.8507 13.496 31.448 13.3627 31.864 13.096C32.28 12.8187 32.488 12.4187 32.488 11.896C32.488 11.4907 32.2907 11.1813 31.896 10.968C31.512 10.744 30.8667 10.5307 29.96 10.328C29.0213 10.1253 28.2587 9.89067 27.672 9.624C27.0853 9.35733 26.6427 9.016 26.344 8.6C26.0453 8.184 25.896 7.656 25.896 7.016C25.896 6.35467 26.0827 5.76267 26.456 5.24C26.8293 4.71733 27.3467 4.312 28.008 4.024C28.68 3.72533 29.432 3.576 30.264 3.576C31.7893 3.576 33.032 3.98133 33.992 4.792C34.1307 4.90933 34.2267 5.02667 34.28 5.144C34.344 5.25067 34.376 5.38933 34.376 5.56C34.376 5.784 34.3067 5.98133 34.168 6.152C34.04 6.312 33.8853 6.392 33.704 6.392C33.5973 6.392 33.496 6.376 33.4 6.344C33.3147 6.312 33.1973 6.25333 33.048 6.168C32.6107 5.848 32.184 5.61333 31.768 5.464C31.3627 5.304 30.8613 5.224 30.264 5.224C29.5387 5.224 28.9627 5.37333 28.536 5.672C28.12 5.96 27.912 6.36533 27.912 6.888C27.912 7.32533 28.0987 7.66133 28.472 7.896C28.8453 8.13067 29.48 8.34933 30.376 8.552C31.3253 8.76533 32.0933 9.00533 32.68 9.272C33.2773 9.528 33.7307 9.85867 34.04 10.264C34.36 10.6693 34.52 11.176 34.52 11.784C34.52 12.4453 34.3333 13.032 33.96 13.544C33.5973 14.0453 33.08 14.44 32.408 14.728C31.7467 15.0053 30.984 15.144 30.12 15.144ZM42.7551 12.856C42.9365 12.856 43.0805 12.9253 43.1871 13.064C43.3045 13.2027 43.3631 13.3893 43.3631 13.624C43.3631 13.9547 43.1658 14.232 42.7711 14.456C42.4085 14.6587 41.9978 14.824 41.5391 14.952C41.0805 15.0693 40.6431 15.128 40.2271 15.128C38.9685 15.128 37.9711 14.7653 37.2351 14.04C36.4991 13.3147 36.1311 12.3227 36.1311 11.064C36.1311 10.264 36.2911 9.55467 36.6111 8.936C36.9311 8.31733 37.3791 7.83733 37.9551 7.496C38.5418 7.15467 39.2031 6.984 39.9391 6.984C40.6431 6.984 41.2565 7.13867 41.7791 7.448C42.3018 7.75733 42.7071 8.19467 42.9951 8.76C43.2831 9.32533 43.4271 9.992 43.4271 10.76C43.4271 11.2187 43.2245 11.448 42.8191 11.448H38.0991C38.1631 12.184 38.3711 12.728 38.7231 13.08C39.0751 13.4213 39.5871 13.592 40.2591 13.592C40.6005 13.592 40.8991 13.5493 41.1551 13.464C41.4218 13.3787 41.7205 13.2613 42.0511 13.112C42.3711 12.9413 42.6058 12.856 42.7551 12.856ZM39.9871 8.392C39.4431 8.392 39.0058 8.56267 38.6751 8.904C38.3551 9.24533 38.1631 9.736 38.0991 10.376H41.7151C41.6938 9.72533 41.5338 9.23467 41.2351 8.904C40.9365 8.56267 40.5205 8.392 39.9871 8.392ZM49.3377 13.608C49.8711 13.64 50.1377 13.88 50.1377 14.328C50.1377 14.584 50.0311 14.7813 49.8177 14.92C49.6151 15.048 49.3217 15.1013 48.9377 15.08L48.5057 15.048C46.7137 14.92 45.8177 13.96 45.8177 12.168V8.68H45.0177C44.7297 8.68 44.5057 8.616 44.3457 8.488C44.1964 8.36 44.1217 8.17333 44.1217 7.928C44.1217 7.68267 44.1964 7.496 44.3457 7.368C44.5057 7.24 44.7297 7.176 45.0177 7.176H45.8177V5.704C45.8177 5.416 45.9084 5.18667 46.0897 5.016C46.2711 4.84533 46.5164 4.76 46.8257 4.76C47.1244 4.76 47.3644 4.84533 47.5457 5.016C47.7271 5.18667 47.8177 5.416 47.8177 5.704V7.176H49.1777C49.4657 7.176 49.6844 7.24 49.8337 7.368C49.9937 7.496 50.0737 7.68267 50.0737 7.928C50.0737 8.17333 49.9937 8.36 49.8337 8.488C49.6844 8.616 49.4657 8.68 49.1777 8.68H47.8177V12.312C47.8177 13.1013 48.1804 13.5227 48.9057 13.576L49.3377 13.608ZM55.4546 13.608C55.988 13.64 56.2546 13.88 56.2546 14.328C56.2546 14.584 56.148 14.7813 55.9346 14.92C55.732 15.048 55.4386 15.1013 55.0546 15.08L54.6226 15.048C52.8306 14.92 51.9346 13.96 51.9346 12.168V8.68H51.1346C50.8466 8.68 50.6226 8.616 50.4626 8.488C50.3133 8.36 50.2386 8.17333 50.2386 7.928C50.2386 7.68267 50.3133 7.496 50.4626 7.368C50.6226 7.24 50.8466 7.176 51.1346 7.176H51.9346V5.704C51.9346 5.416 52.0253 5.18667 52.2066 5.016C52.388 4.84533 52.6333 4.76 52.9426 4.76C53.2413 4.76 53.4813 4.84533 53.6626 5.016C53.844 5.18667 53.9346 5.416 53.9346 5.704V7.176H55.2946C55.5826 7.176 55.8013 7.24 55.9506 7.368C56.1106 7.496 56.1906 7.68267 56.1906 7.928C56.1906 8.17333 56.1106 8.36 55.9506 8.488C55.8013 8.616 55.5826 8.68 55.2946 8.68H53.9346V12.312C53.9346 13.1013 54.2973 13.5227 55.0226 13.576L55.4546 13.608ZM58.6089 15.096C58.3209 15.096 58.0809 15.016 57.8889 14.856C57.7075 14.6853 57.6169 14.4453 57.6169 14.136V7.96C57.6169 7.65067 57.7075 7.416 57.8889 7.256C58.0809 7.096 58.3209 7.016 58.6089 7.016C58.8969 7.016 59.1369 7.096 59.3289 7.256C59.5209 7.416 59.6169 7.65067 59.6169 7.96V14.136C59.6169 14.4453 59.5209 14.6853 59.3289 14.856C59.1369 15.016 58.8969 15.096 58.6089 15.096ZM58.6089 5.592C58.2462 5.592 57.9582 5.496 57.7449 5.304C57.5315 5.10133 57.4249 4.84 57.4249 4.52C57.4249 4.2 57.5315 3.944 57.7449 3.752C57.9582 3.56 58.2462 3.464 58.6089 3.464C58.9609 3.464 59.2435 3.56 59.4569 3.752C59.6809 3.944 59.7929 4.2 59.7929 4.52C59.7929 4.84 59.6862 5.10133 59.4729 5.304C59.2595 5.496 58.9715 5.592 58.6089 5.592ZM66.5434 6.984C67.482 6.984 68.1807 7.25067 68.6394 7.784C69.098 8.31733 69.3274 9.12267 69.3274 10.2V14.136C69.3274 14.4347 69.2367 14.6693 69.0554 14.84C68.8847 15.0107 68.6447 15.096 68.3354 15.096C68.026 15.096 67.7807 15.0107 67.5994 14.84C67.418 14.6693 67.3274 14.4347 67.3274 14.136V10.312C67.3274 9.704 67.21 9.26133 66.9754 8.984C66.7514 8.70667 66.394 8.568 65.9034 8.568C65.3274 8.568 64.8634 8.74933 64.5114 9.112C64.17 9.47467 63.9994 9.96 63.9994 10.568V14.136C63.9994 14.4347 63.9087 14.6693 63.7274 14.84C63.546 15.0107 63.3007 15.096 62.9914 15.096C62.682 15.096 62.4367 15.0107 62.2554 14.84C62.0847 14.6693 61.9994 14.4347 61.9994 14.136V7.944C61.9994 7.66667 62.09 7.44267 62.2714 7.272C62.4527 7.10133 62.698 7.016 63.0074 7.016C63.2847 7.016 63.5087 7.10133 63.6794 7.272C63.8607 7.432 63.9514 7.64533 63.9514 7.912V8.344C64.218 7.90667 64.5754 7.57067 65.0234 7.336C65.4714 7.10133 65.978 6.984 66.5434 6.984ZM78.3027 7.016C78.6014 7.016 78.8414 7.10133 79.0227 7.272C79.2041 7.44267 79.2947 7.672 79.2947 7.96V14.28C79.2947 15.5067 78.9534 16.4347 78.2707 17.064C77.5881 17.6933 76.5801 18.008 75.2467 18.008C74.0841 18.008 73.1134 17.7893 72.3347 17.352C71.9401 17.1173 71.7427 16.8347 71.7427 16.504C71.7427 16.2693 71.7961 16.0827 71.9027 15.944C72.0201 15.8053 72.1694 15.736 72.3507 15.736C72.4467 15.736 72.5641 15.7573 72.7027 15.8C72.8414 15.8533 72.9854 15.912 73.1347 15.976C73.5187 16.136 73.8601 16.2587 74.1587 16.344C74.4681 16.4293 74.8201 16.472 75.2147 16.472C76.6121 16.472 77.3107 15.7893 77.3107 14.424V13.4C77.0761 13.8373 76.7347 14.1787 76.2867 14.424C75.8387 14.6587 75.3267 14.776 74.7507 14.776C74.0681 14.776 73.4601 14.616 72.9267 14.296C72.4041 13.9653 71.9934 13.5067 71.6947 12.92C71.3961 12.3333 71.2467 11.656 71.2467 10.888C71.2467 10.12 71.3907 9.44267 71.6787 8.856C71.9774 8.25867 72.3934 7.8 72.9267 7.48C73.4601 7.14933 74.0681 6.984 74.7507 6.984C75.3267 6.984 75.8387 7.10667 76.2867 7.352C76.7347 7.58667 77.0761 7.92267 77.3107 8.36V7.944C77.3107 7.66667 77.4014 7.44267 77.5827 7.272C77.7641 7.10133 78.0041 7.016 78.3027 7.016ZM75.2787 13.224C75.9187 13.224 76.4147 13.016 76.7667 12.6C77.1294 12.184 77.3107 11.6133 77.3107 10.888C77.3107 10.152 77.1294 9.576 76.7667 9.16C76.4147 8.744 75.9187 8.536 75.2787 8.536C74.6494 8.536 74.1534 8.744 73.7907 9.16C73.4281 9.576 73.2467 10.152 73.2467 10.888C73.2467 11.6133 73.4281 12.184 73.7907 12.6C74.1534 13.016 74.6494 13.224 75.2787 13.224ZM84.5183 15.128C83.3556 15.128 82.4169 14.8987 81.7023 14.44C81.3609 14.2373 81.1903 13.9493 81.1903 13.576C81.1903 13.3627 81.2489 13.192 81.3663 13.064C81.4836 12.9253 81.6276 12.856 81.7983 12.856C81.9796 12.856 82.2303 12.9413 82.5503 13.112C82.8916 13.272 83.2009 13.3947 83.4783 13.48C83.7663 13.5653 84.1289 13.608 84.5663 13.608C85.0143 13.608 85.3609 13.5333 85.6063 13.384C85.8623 13.2347 85.9903 13.0267 85.9903 12.76C85.9903 12.5787 85.9369 12.4347 85.8303 12.328C85.7343 12.2213 85.5529 12.1253 85.2863 12.04C85.0303 11.944 84.6356 11.8373 84.1023 11.72C83.1529 11.528 82.4703 11.256 82.0543 10.904C81.6489 10.552 81.4463 10.0667 81.4463 9.448C81.4463 8.97867 81.5849 8.55733 81.8623 8.184C82.1396 7.8 82.5183 7.50667 82.9983 7.304C83.4889 7.09067 84.0436 6.984 84.6623 6.984C85.1103 6.984 85.5423 7.04267 85.9583 7.16C86.3743 7.26667 86.7476 7.42667 87.0783 7.64C87.4196 7.85333 87.5903 8.136 87.5903 8.488C87.5903 8.70133 87.5316 8.88267 87.4143 9.032C87.2969 9.17067 87.1529 9.24 86.9823 9.24C86.8649 9.24 86.7476 9.21867 86.6303 9.176C86.5236 9.12267 86.3849 9.048 86.2143 8.952C85.9049 8.792 85.6383 8.67467 85.4143 8.6C85.1903 8.51467 84.9129 8.472 84.5823 8.472C84.1876 8.472 83.8729 8.552 83.6383 8.712C83.4143 8.872 83.3023 9.09067 83.3023 9.368C83.3023 9.63467 83.4196 9.83733 83.6543 9.976C83.8889 10.1147 84.3423 10.2533 85.0143 10.392C85.7289 10.5413 86.2889 10.712 86.6943 10.904C87.0996 11.096 87.3876 11.336 87.5583 11.624C87.7396 11.912 87.8303 12.28 87.8303 12.728C87.8303 13.4533 87.5263 14.0347 86.9183 14.472C86.3209 14.9093 85.5209 15.128 84.5183 15.128Z" fill="#30BE76"/>
</svg>
